<svg xmlns="http://www.w3.org/2000/svg" viewBox="0 0 1200 1800">
  <defs>
    <linearGradient id="g" x1="0" y1="0" x2="0" y2="1">
      <stop offset="0%" stop-color="#fff8f2"/>
      <stop offset="100%" stop-color="#ffece4"/>
    </linearGradient>
  </defs>
  <rect width="1200" height="1800" fill="url(#g)"/>
  <g opacity="0.55">
    <circle cx="240" cy="240" r="120" fill="#ffd4c7"/>
    <circle cx="960" cy="220" r="110" fill="#ffe0d6"/>
    <circle cx="980" cy="1520" r="145" fill="#ffd1c2"/>
    <circle cx="220" cy="1560" r="130" fill="#ffe2d6"/>
  </g>
  <g fill="none" stroke="#f4a592" stroke-width="5" opacity="0.65">
    <path d="M300 650c0-30 24-54 54-54 19 0 35 10 46 25 11-15 27-25 46-25 30 0 54 24 54 54 0 54-100 120-100 120S300 704 300 650z"/>
    <path d="M720 980c0-28 22-50 50-50 18 0 33 9 43 23 10-14 25-23 43-23 28 0 50 22 50 50 0 50-93 111-93 111S720 1030 720 980z"/>
  </g>
</svg>
